
Format : AVI
Format/Info : Audio Video Interleave
File size : 1.24 GiB
Duration : 1h 26mn
Overall bit rate : 2 052 Kbps
Writing library : VirtualDub build 32842/release

Video
ID : 0
Format : MPEG-4 Visual
Format profile : Advanced Simple@L5
Format settings, BVOP : 2
Format settings, QPel : No
Format settings, GMC : No warppoints
Format settings, Matrix : Default (H.263)
Muxing mode : Packed bitstream
Codec ID : XVID
Codec ID/Hint : XviD
Duration : 1h 26mn
Bit rate : 1 785 Kbps
Width : 624 pixels
Height : 292 pixels
Display aspect ratio : 2.2:1
Frame rate : 29.970 fps
Color space : YUV
Chroma subsampling : 4:2:0
Bit depth : 8 bits
Scan type : Progressive
Compression mode : Lossy
Bits/(Pixel*Frame) : 0.327
Stream size : 1.08 GiB (87%)
Writing library : XviD 64

Audio
ID : 1
Format : AC-3
Format/Info : Audio Coding 3
Mode extension : CM (complete main)
Codec ID : 2000
Duration : 1h 26mn
Bit rate mode : Constant
Bit rate : 256 Kbps
Channel(s) : 2 channels
Channel positions : Front: L R
Sampling rate : 48.0 KHz
Bit depth : 16 bits
Compression mode : Lossy
Stream size : 158 MiB (12%)
Alignment : Aligned on interleaves
Interleave, duration : 33 ms (1.00 video frame)
Interleave, preload duration : 512 ms









 
http://www.imdb.com/title/tt1619277/





Ratings: 5.9/10 from 36 users 
Reviews: 9 user | 4 critic

A comedy that follows nine very different couples on the night they conceive, showing that sex can sometimes be more neurotic than erotic.
Director:
Josh Stolberg
Writer:
Josh Stolberg
Stars:
Sarah Hyland, Steve Howey and Alan Tudyk 







Source Used



HOKNOWS ......Thanks
 
http://i.imgur.com/R8pZ5.png
 
http://i.imgur.com/jPnFg.png